<?xml version="1.0" encoding="UTF-8"?>
<svg id="nshc4-b_x2B_w_xA0_Image" xmlns="http://www.w3.org/2000/svg" version="1.1" viewBox="0 0 576 602.64" fill="#B72B39">
  <!-- Generator: Adobe Illustrator 29.4.0, SVG Export Plug-In . SVG Version: 2.1.0 Build 152)  -->
  <defs>
    <style>
      .st0 {
        fill: #fff;
      }
    </style>
  </defs>
  <g>
    <path d="M274.46,7.34C452.1-.17,591.83,153.34,565.84,329.79c-18.09,122.78-117.58,220.37-240.71,236.32C140.84,589.98-15.05,433.01,10.15,248.85,28.23,116.71,140.67,12.99,274.46,7.34ZM274.94,18.85C146.92,24.4,39.3,123.38,21.67,249.81c-24.74,177.37,125.67,328.13,302.98,304.78,119.02-15.67,214.96-111.58,230.64-230.55C577.42,156.11,443.78,11.54,274.94,18.85Z"/>
    <path d="M312.16,590.96c-2.97-3.08-2.73-12.06,1.63-14.12,10.2-4.82,11.56,17.98.95,15.62-.55-.12-2.19-1.09-2.58-1.5ZM315.69,579.18c-2.38.6-2.61,10.53.39,10.53,3.19,0,3.09-11.4-.39-10.53Z"/>
    <polygon points="251.52 576.25 251.52 579.13 245.28 579.13 245.28 582.49 251.05 582.76 251.04 585.37 245.28 585.36 245.28 589.21 252 589.21 252 592.08 241.44 592.08 241.44 576.25 251.52 576.25"/>
    <path d="M307.68,576.73v2.88s-6.24,0-6.24,0v2.4c12.85.26,5.16,15.1-4.29,9.3l.45-2.58c7.99,3.54,9.67-5.25.47-3.83l.48-8.16h9.12Z"/>
    <path d="M334.08,576.73v2.88s-5.45.07-5.45.07l-.79,2.33c12.93.11,5.62,15.02-4.21,9.38l1.08-2.64c7.91,3.5,8.64-5.59-.24-3.86l.96-8.16h8.64Z"/>
    <path d="M283.68,592.08c.02-.78-.19-1.67.24-2.4.35-.59,4.25-3.51,5.28-4.8,1.13-1.4,3.01-4.37.51-5.38-2.74-1.1-5.1,3.2-5.51-1.51,2.58-2.45,8.23-2.56,9.92.99,2.18,4.58-2.25,7.13-4.69,10.2h5.28s0,2.88,0,2.88h-11.04Z"/>
    <path d="M268.8,577.21v3.36s2.4,0,2.4,0l-.02,2.38-1.92.23-.25,5.58,2.22.71c.43,3.16-.96,3.74-3.79,2.78-3.39-1.15-2.36-6.18-2.44-9.02l-1.51-.52v-1.88s1.42-.29,1.42-.29c-.37-2.95,1.32-3.27,3.89-3.33Z"/>
    <path d="M261.58,580.59l-.47,2.86-3.56-.49-.29,1.21c2.92.82,6.34,2.78,4.57,6.48-1.13,2.36-10.38,3.23-7.91-1.44.2-.15,3.98,1.46,4.78-.25l-4.53-3.14c-2.26-4.83,3.52-6.7,7.4-5.23Z"/>
    <path d="M276.84,591.97c-3.12,3.12-6.29-4.59-1.1-3.72,1.84.31,2.24,2.58,1.1,3.72Z"/>
    <path class="st0" d="M274.94,18.85c168.84-7.32,302.48,137.25,280.35,305.19-15.68,118.97-111.62,214.88-230.64,230.55C147.34,577.94-3.07,427.18,21.67,249.81,39.3,123.38,146.92,24.4,274.94,18.85ZM320.58,33.65c-11.93.03-25.66,7.11-21.4,21.15,1.69,5.56,10.68,11.79,6.51,17.82-2.2,3.18-6.93,2.91-10.22,3.69-.53.13-1,.11-1.19.76-.46,1.42,4.16,11.65,5.57,12.08,3.18.96,10.05-1.57,12.95-3.19,8.37-4.67,12.63-13.52,8.03-22.58-2.15-4.23-11.05-13.01-4.15-16.73,2.71-1.46,4.94-.9,7.8-.6l-3.9-12.41ZM246.66,48.88c.2-.65.09-1.33-.06-1.98-.43-1.9-2.08-7.48-2.77-9.23-.18-.46-.18-.97-.75-1.17-11.83,3.97-23.7,8.19-36.2,9.57-.31,2.71.63,5.28.95,7.92.13,1.08-.44,5.4.72,5.49l10.68-3.74,1.33.4,10.15,39.37c1.86.46,14.53-2.67,15-4.18l-10.54-39.7,11.49-2.73ZM354.7,42.24l-14.82-4.29c-2.3,6.76-3.54,13.83-5.46,20.69-3.98,14.17-13.53,28.02,4.46,35.63,9.22,3.9,28.32,9.5,32.72-3.26l12.91-39.86-14.93-3.93-10.28,34.85c-2.33,3.97-5.19,4.25-9.28,2.99-7.4-2.28-6.27-6.3-4.66-12.61,2.58-10.11,7.37-19.95,9.34-30.21ZM179.88,57.7c-3.71.5-9.65,3.31-12.59,5.65-25.83,20.5,1.35,64.28,31.92,46.78,26.43-15.14,10.91-56.51-19.32-52.42ZM414.79,104.66c10.96.32,20.44-11.76,17.44-22.12-3.4-11.74-22.33-18.34-32.1-23.97l-26.62,45.68c.32,1.18,12.21,8.19,13.08,7.99l8.74-15.76c4.35,2.12,5.73,2.19,5.46,7.4-.25,4.9-1.98,10.32-2.34,15.27.28.89,12.46,8.22,13.58,8.03l2.76-22.52ZM125.76,126.19l35.25,6.25c1.22-.17,9.88-7.76,9.8-8.81l-35.61-39.6c-.77.07-9.22,8.17-9.96,9.27-.3.44-.61.75-.38,1.34l19.13,20.51c-1.48.57-2.89.08-4.41-.15-10.66-1.59-21.17-4.48-31.84-6.13-2.17.12-3.91,3.73-5.27,5.33-1.24,1.46-2.92,2.59-4.03,4.17l35.33,38.96c.82.21,4.05-2.75,4.95-3.54,1.94-1.72,3.45-3.96,5.74-5.3l.44-1.34c-5.03-6.31-12.48-11.97-17.47-18.07-.35-.43-2.06-2.5-1.67-2.88ZM464.16,131.46c.43-.6-1.42-2.18-1.91-2.64-3.97-3.68-8.42-6.93-12.22-10.82-1.98-2.12,2.77-7.5,5.01-6.45l14.65,15.11c1.8-1.95,8.12-8.1,7.36-10.68l-25.67-24.78-18.88,20.85-18.18,17.33c-.14.74.84,1.82,1.35,2.35,4.74,5.06,11.05,10.18,16.11,15.08,1.44,1.39,8.12,8.95,9.1,8.96,1.87-.72,10.34-6.84,10.34-8.22,0-1.86-16.34-12.23-15.87-16.78.08-.81,3.42-4.8,4.19-5l1.09.17,13.22,13.69,10.3-8.17ZM281.66,101.38c-147.66,5.56-231.6,173.54-145.25,294.61,79.95,112.1,250.49,101.5,315.83-19.5,68.38-126.63-27.29-280.51-170.58-275.11ZM72.05,270.08l-5.56-17.23-6.75-.51-.76.32-5.77,17.4c-.96.61-14.72-.32-17.48.04-2.54.34-4.29,5.61-3.13,7.49l14.76,10.99-5.39,17.51c1.2,1.21,4.37,4.19,6.02,3.67l14.63-10.37,14.63,10.36c2.43.19,6.54-2.46,6.16-5.19s-5.56-14.92-5.13-16.36l14.15-10.35c1.68-1.28-.56-7.18-2.05-7.62l-18.34-.14ZM525.17,270.08l-5.56-17.23-6.75-.51-.76.32-5.77,17.4c-.96.61-14.72-.32-17.48.04-2.54.34-4.29,5.61-3.13,7.49l14.76,10.99-5.39,17.51c1.2,1.21,4.37,4.19,6.02,3.67l14.63-10.37,14.63,10.36c2.43.19,6.54-2.46,6.16-5.19-.38-2.76-5.56-14.92-5.13-16.36l14.15-10.35c1.68-1.28-.56-7.18-2.05-7.62l-18.34-.14ZM50.95,377.2c-1.17,1.86,4.96,12.24,6.48,14.29.81.24,4.88-2.05,5.94-2.59,2.98-1.52,8.69-5.59,11.5-6.28.56-.14.84-.37,1.44.02.75.47,7.81,14.23,8.28,15.76.15.47.5.89.31,1.44-.59,2.34-17.59,7.67-18.12,9.78.38,1.9,5.98,13.25,6.97,13.54l47.65-24.24-6.97-13.59-15.91,8.52c-1.79.57-2.48-1.48-3.25-2.79-2.8-4.77-4.86-10.12-7.36-15.06.36-1.9,15.22-6.41,17.19-8.77l-7.01-13.57c-9.3,4.01-17.79,9.77-26.87,14.29-6.63,3.3-13.64,5.94-20.26,9.25ZM505.35,422.62c4.91-9.9,16.3-24.16,14.92-35.6-1.14-9.41-13.91-17.08-22.27-11.34-2.71-7.3-7.75-12.57-16.19-11.38-9.21,1.31-17.82,20.31-21.73,28.17-.5,1.01-2.75,5.05-2.4,5.79,8.28,4.72,17.28,8.17,25.7,12.68,5.81,3.12,13.68,9.16,19.32,11.39.73.29,1.96.69,2.66.28ZM453.94,404.05l-9.41,11.64,27.79,23.58c4.58,4.61-2.52,14.12-7.8,13.1-2.7-.52-8.61-5.83-10.93-7.82-2.47-2.12-17.76-16.86-19.04-16.97-1.64.9-10.63,10.44-10.63,11.21,6.23,6.1,13.56,11.02,20.3,16.56,10.19,8.38,16.56,20.01,30.27,8.16,5.79-5,15.64-17.2,14.58-25.16-.86-6.49-15.01-16.6-20.12-21.14-4.64-4.12-9-8.63-13.65-12.75l-1.37-.4ZM114.61,409.41c-8.14.93-17.19,7.17-21.4,14.12-15.3,25.24,14.57,53.94,39.7,36.33,24.16-16.93,10.87-53.76-18.3-50.44ZM165.6,492.28h-6.96c-.49,0-3.8-1.37-4.5-1.73-15.91-8.19.83-34.09,14.98-23.61,3.96,2.93,5.48,7.66,6.09,12.39.57.5,10.9-3.84,11.78-4.77,1.88-2-1.24-9.12-2.58-11.38-13.72-23.22-46.1-13.51-51.31,10.77-3.96,18.47,13.12,36.21,31.55,30.58,1.73-1.76.63-9.65.95-12.24ZM408.95,450.06c-.43-.3-1.89.9-2.35,1.24-2.62,1.94-6.55,4.85-8.91,6.92-.47.41-1.68,1.28-1.51,1.93l31.97,41.02c1.51.76,3.2-.93,4.47-1.79,8.51-5.69,16.46-12.94,25.05-18.63.51-.82.28-1.55-.02-2.37-.46-1.26-5.78-9.43-6.69-9.5l-17.06,14.03-1.37.18-23.59-33.04ZM384.86,466.04c-26.4,1.99-33.17,33.19-15.03,49.77,11.76,10.76,32.45,8.14,40.17-5.93.88-1.61,3.06-5.86,1.84-7.27-.53-.61-9.23-6.1-9.79-5.97-2.05,2.97-3.25,6.37-6.29,8.61-14.89,10.96-29.04-14.43-16.24-22.95,4.96-3.3,10.4-2.39,15.72-.6.41-.11.51-.43.66-.78.63-1.48,1.36-9.79,1.05-11.41-.6-3.16-9.44-3.66-12.09-3.46ZM207.34,473.59c-2.71.28-13.33-5.7-14.8-4.76-5.34,16.72-11.73,33-18.61,49.13.2,1.87,12.16,5.77,14.41,5.95l6.63-17.63,4.7-.06,3.65,23.46c.87,1.14,12,5.44,13.4,5.31,3.34-.32,1.41-9.26,1.07-11.62s-3.84-18.26-3.17-19.05c4.57-.65,8.64-3.43,11.96-6.52,2.06-1.92,7.88-8.35,9.05-10.63.39-.76.66-1.41.58-2.3-2.87-.29-10.99-5.13-13.12-4.51s-9.05,10.8-12.47,12.99c-2.65,1.7-5.54,2.37-8.51,1.08-1.08-.47-2-.93-1.85-2.27.31-2.82,8.05-17.52,7.11-18.58ZM275.4,489.04l-36.15-3.98c-1.01,8.83-1.12,17.78-2.19,26.59-.91,7.46-3.31,15.83-3.77,23.1-.06.87-.26,2.91.44,3.38l34.37,4.53c.8.05,1.8.22,2.39-.48.78-.93,3.49-11.71,2.91-12.51-3.39-1.13-21.63-.34-22.76-3.65-.23-.67-.23-4.86-.08-5.68.33-1.77,3.02-1.28,4.56-1.19,5.36.32,10.69,1.98,16.05,2.35l2.24-12.95c-3.08-.97-18.7-.59-20.32-2.49-.87-1.02-.63-7.41,1.65-7.45l20.77,3.23c.52-2.04,1.07-11.8-.1-12.82ZM297.6,528.03v13.67c3.16.28,7.07.25,10.32,0,.87-.07,5.75-.72,5.94-1.02.62-4.7-2.43-11.25-.32-15.44,3.39-6.76,9.27-13.15,12-20.63,2.04-5.62.07-12.2-.09-18.07l-15.38,1.17c-.5.34-.48.92-.48,1.45.07,6.8,3.63,11.64-2.18,17.97-.74.59-2.48,4.66-3.3,4.35-1.15-.44-7.82-8.66-8.19-10.05-.48-1.82-.24-12.51-.71-12.97l-15.63.93,1.45,15.89c4.11,6.74,9.99,12.77,14.38,19.21.48.71,2.08,2.96,2.2,3.56Z"/>
    <path class="st0" style="fill:#f8b53c" d="M315.69,579.18c3.48-.87,3.59,10.52.39,10.53-3,0-2.77-9.93-.39-10.53Z"/>
    <path d="M288.18,112.17c-94.99,0-174.79,81.32-174.79,175.92s75.89,174.16,174.61,174.16,173.97-79.78,173.97-175.16-78.79-174.92-173.78-174.92ZM281.66,101.38c143.3-5.39,238.96,148.48,170.58,275.11-65.34,121.01-235.88,131.6-315.83,19.5-86.35-121.07-2.41-289.05,145.25-294.61Z"/>
    <path d="M125.76,126.19c-.39.38,1.32,2.46,1.67,2.88,5,6.1,12.44,11.76,17.47,18.07l-.44,1.34c-2.3,1.34-3.8,3.57-5.74,5.3-.9.79-4.13,3.75-4.95,3.54l-35.33-38.96c1.12-1.58,2.8-2.71,4.03-4.17,1.35-1.59,3.1-5.2,5.27-5.33,10.66,1.65,21.18,4.53,31.84,6.13,1.52.23,2.93.72,4.41.15l-19.13-20.51c-.23-.59.08-.9.38-1.34.74-1.1,9.18-9.2,9.96-9.27l35.61,39.6c.09,1.04-8.57,8.64-9.8,8.81l-35.25-6.25Z"/>
    <path d="M505.35,422.62c-.7.41-1.93,0-2.66-.28-5.64-2.23-13.51-8.27-19.32-11.39-8.42-4.51-17.42-7.97-25.7-12.68-.35-.74,1.9-4.78,2.4-5.79,3.91-7.86,12.52-26.87,21.73-28.17,8.44-1.2,13.48,4.08,16.19,11.38,8.36-5.74,21.13,1.93,22.27,11.34,1.38,11.44-10.01,25.69-14.92,35.6ZM482.79,393.35c.31-.19,3.09-5.69,3.34-6.49.73-2.25,1.28-4.6-.68-6.3-5.28-4.57-10,5.15-11.25,9.22,1.66,1.01,6.74,4.66,8.59,3.57ZM500.51,388.25c-3.18.65-6.34,7.8-7.48,10.64.22,1.19,7.16,4.77,8.32,4.66,1.63-.16,5.64-8.92,5.56-10.82-.13-2.86-3.78-5.02-6.4-4.48Z"/>
    <path d="M50.95,377.2c6.62-3.31,13.63-5.96,20.26-9.25,9.08-4.52,17.58-10.27,26.87-14.29l7.01,13.57c-1.96,2.36-16.83,6.86-17.19,8.77,2.5,4.94,4.56,10.29,7.36,15.06.77,1.31,1.46,3.36,3.25,2.79l15.91-8.52,6.97,13.59-47.65,24.24c-1-.3-6.6-11.64-6.97-13.54.54-2.12,17.53-7.45,18.12-9.78.19-.55-.16-.97-.31-1.44-.47-1.52-7.53-15.28-8.28-15.76-.61-.38-.88-.15-1.44-.02-2.82.69-8.53,4.77-11.5,6.28-1.06.54-5.13,2.83-5.94,2.59-1.52-2.04-7.66-12.43-6.48-14.29Z"/>
    <path d="M179.88,57.7c30.24-4.09,45.75,37.29,19.32,52.42-30.56,17.5-57.74-26.28-31.92-46.78,2.94-2.33,8.88-5.14,12.59-5.65ZM181.31,72.09c-15.06,2.55-10.87,28.98,5.1,27.67,17.63-1.44,13.65-30.85-5.1-27.67Z"/>
    <path d="M114.61,409.41c29.17-3.32,42.46,33.51,18.3,50.44-25.13,17.62-55-11.09-39.7-36.33,4.21-6.94,13.26-13.19,21.4-14.12ZM115.07,424.27c-12.07,2.04-16.23,20.79-3.5,25.35,21.13,7.57,28.24-29.52,3.5-25.35Z"/>
    <path d="M414.79,104.66l-2.76,22.52c-1.13.18-13.3-7.15-13.58-8.03.36-4.96,2.09-10.37,2.34-15.27.27-5.21-1.12-5.28-5.46-7.4l-8.74,15.76c-.87.2-12.76-6.81-13.08-7.99l26.62-45.68c9.77,5.62,28.7,12.23,32.1,23.97,3,10.37-6.49,22.44-17.44,22.12ZM407.83,75.89c-1.63.3-6.18,9.47-7.39,11.2,4.11,4.18,11.87,9.01,15.83,2.02,3.93-6.96-2.77-10.94-8.43-13.22Z"/>
    <path d="M72.05,270.08l18.34.14c1.49.45,3.73,6.34,2.05,7.62l-14.15,10.35c-.42,1.44,4.75,13.61,5.13,16.36s-3.73,5.39-6.16,5.19l-14.63-10.36-14.63,10.37c-1.66.52-4.82-2.46-6.02-3.67l5.39-17.51-14.76-10.99c-1.16-1.89.59-7.16,3.13-7.49,2.76-.36,16.52.57,17.48-.04l5.77-17.4.76-.32,6.75.51,5.56,17.23Z"/>
    <path d="M525.17,270.08l18.34.14c1.49.45,3.73,6.34,2.05,7.62l-14.15,10.35c-.42,1.44,4.75,13.61,5.13,16.36.38,2.73-3.73,5.39-6.16,5.19l-14.63-10.36-14.63,10.37c-1.66.52-4.82-2.46-6.02-3.67l5.39-17.51-14.76-10.99c-1.16-1.89.59-7.16,3.13-7.49,2.76-.36,16.52.57,17.48-.04l5.77-17.4.76-.32,6.75.51,5.56,17.23Z"/>
    <path d="M207.34,473.59c.95,1.06-6.79,15.76-7.11,18.58-.15,1.34.77,1.8,1.85,2.27,2.98,1.29,5.87.62,8.51-1.08,3.42-2.19,10.28-12.35,12.47-12.99s10.26,4.21,13.12,4.51c.08.89-.19,1.54-.58,2.3-1.17,2.28-6.98,8.71-9.05,10.63-3.32,3.08-7.39,5.87-11.96,6.52-.67.79,2.81,16.57,3.17,19.05s2.27,11.3-1.07,11.62c-1.4.13-12.53-4.17-13.4-5.31l-3.65-23.46-4.7.06-6.63,17.63c-2.25-.18-14.21-4.08-14.41-5.95,6.89-16.13,13.28-32.41,18.61-49.13,1.47-.95,12.09,5.03,14.8,4.76Z"/>
    <path d="M453.94,404.05l1.37.4c4.66,4.12,9.01,8.63,13.65,12.75,5.11,4.54,19.26,14.66,20.12,21.14,1.05,7.96-8.8,20.16-14.58,25.16-13.71,11.85-20.07.22-30.27-8.16-6.74-5.54-14.07-10.46-20.3-16.56,0-.77,8.99-10.31,10.63-11.21,1.28.11,16.57,14.86,19.04,16.97,2.32,1.99,8.23,7.3,10.93,7.82,5.27,1.01,12.38-8.49,7.8-13.1l-27.79-23.58,9.41-11.64Z"/>
    <path d="M354.7,42.24c-1.97,10.26-6.76,20.1-9.34,30.21-1.61,6.3-2.74,10.32,4.66,12.61,4.09,1.26,6.95.98,9.28-2.99l10.28-34.85,14.93,3.93-12.91,39.86c-4.4,12.76-23.5,7.16-32.72,3.26-18-7.61-8.44-21.47-4.46-35.63,1.93-6.86,3.16-13.93,5.46-20.69l14.82,4.29Z"/>
    <path d="M464.16,131.46l-10.3,8.17-13.22-13.69-1.09-.17c-.77.2-4.11,4.2-4.19,5-.47,4.55,15.87,14.91,15.87,16.78,0,1.38-8.47,7.5-10.34,8.22-.99-.01-7.67-7.57-9.1-8.96-5.06-4.9-11.37-10.02-16.11-15.08-.5-.54-1.49-1.61-1.35-2.35l18.18-17.33,18.88-20.85,25.67,24.78c.77,2.58-5.56,8.73-7.36,10.68l-14.65-15.11c-2.23-1.05-6.98,4.33-5.01,6.45,3.8,3.89,8.25,7.14,12.22,10.82.49.45,2.34,2.03,1.91,2.64Z"/>
    <path d="M275.4,489.04c1.17,1.02.62,10.79.1,12.82l-20.77-3.23c-2.28.04-2.53,6.43-1.65,7.45,1.62,1.89,17.24,1.52,20.32,2.49l-2.24,12.95c-5.36-.38-10.68-2.04-16.05-2.35-1.53-.09-4.23-.58-4.56,1.19-.15.82-.15,5.02.08,5.68,1.13,3.3,19.37,2.52,22.76,3.65.58.8-2.13,11.58-2.91,12.51-.59.7-1.59.53-2.39.48l-34.37-4.53c-.7-.47-.49-2.51-.44-3.38.46-7.27,2.86-15.64,3.77-23.1,1.07-8.82,1.19-17.77,2.19-26.59l36.15,3.98Z"/>
    <path d="M384.86,466.04c2.65-.2,11.49.3,12.09,3.46.31,1.62-.42,9.93-1.05,11.41-.15.34-.24.67-.66.78-5.32-1.78-10.77-2.7-15.72.6-12.8,8.52,1.35,33.91,16.24,22.95,3.04-2.24,4.24-5.64,6.29-8.61.56-.13,9.26,5.36,9.79,5.97,1.22,1.41-.96,5.67-1.84,7.27-7.72,14.07-28.41,16.69-40.17,5.93-18.13-16.58-11.37-47.78,15.03-49.77Z"/>
    <path d="M165.6,492.28c-.32,2.59.77,10.49-.95,12.24-18.44,5.63-35.51-12.11-31.55-30.58,5.2-24.28,37.59-33.99,51.31-10.77,1.34,2.26,4.46,9.39,2.58,11.38-.88.93-11.21,5.28-11.78,4.77-.61-4.74-2.12-9.46-6.09-12.39-14.15-10.48-30.89,15.42-14.98,23.61.7.36,4.01,1.73,4.5,1.73h6.96Z"/>
    <path d="M297.6,528.03c-.12-.59-1.72-2.84-2.2-3.56-4.39-6.44-10.27-12.47-14.38-19.21l-1.45-15.89,15.63-.93c.46.46.23,11.15.71,12.97.37,1.39,7.04,9.61,8.19,10.05.82.31,2.56-3.76,3.3-4.35,5.81-6.34,2.25-11.17,2.18-17.97,0-.53-.02-1.1.48-1.45l15.38-1.17c.16,5.88,2.13,12.45.09,18.07-2.72,7.49-8.61,13.87-12,20.63-2.1,4.19.94,10.74.32,15.44-.19.31-5.07.96-5.94,1.02-3.24.25-7.15.28-10.32,0v-13.67Z"/>
    <path d="M246.66,48.88l-11.49,2.73,10.54,39.7c-.47,1.52-13.13,4.64-15,4.18l-10.15-39.37-1.33-.4-10.68,3.74c-1.16-.09-.6-4.42-.72-5.49-.31-2.64-1.25-5.2-.95-7.92,12.5-1.39,24.37-5.6,36.2-9.57.57.2.57.72.75,1.17.69,1.76,2.34,7.33,2.77,9.23.15.65.26,1.33.06,1.98Z"/>
    <path d="M408.95,450.06l23.59,33.04,1.37-.18,17.06-14.03c.91.07,6.23,8.24,6.69,9.5.3.82.53,1.56.02,2.37-8.59,5.69-16.54,12.93-25.05,18.63-1.27.85-2.97,2.55-4.47,1.79l-31.97-41.02c-.17-.66,1.04-1.53,1.51-1.93,2.37-2.07,6.3-4.99,8.91-6.92.46-.34,1.91-1.54,2.35-1.24Z"/>
    <path d="M320.58,33.65l3.9,12.41c-2.87-.31-5.09-.87-7.8.6-6.9,3.72,2,12.5,4.15,16.73,4.6,9.06.34,17.9-8.03,22.58-2.9,1.62-9.76,4.15-12.95,3.19-1.41-.43-6.03-10.66-5.57-12.08.19-.65.65-.63,1.19-.76,3.29-.79,8.03-.52,10.22-3.69,4.17-6.03-4.83-12.26-6.51-17.82-4.26-14.04,9.47-21.12,21.4-21.15Z"/>
    <path class="st0" d="M337.49,221.14l-28.36-86.09c-1.43-3.44-2.35-5.54-6.49-5.99-6.24-.67-19.59-.56-25.94-.02-2.88.25-6.12,1.23-7.45,4.07l-29.23,87.85-93.38.22c-1.1.12-2.33.47-3.29,1.03-3.43,2.02-6.38,13.2-7.64,17.31-1.46,4.77-5.63,14.34-2.28,18.37l76.74,56.18-28.3,87.76c-.13,1.71.58,3.31,1.72,4.56,2.85,3.11,18.37,14.32,22.36,16.51,2.48,1.36,4.71,2.59,7.41.77l74.86-54.22,76.66,54.85c2.56.75,4.05.45,6.3-.73,4.65-2.45,17.22-11.65,21.2-15.27,2.72-2.47,4.13-4.24,3.4-8.17l-28.04-86.96,74.08-54.09c2.26-1.65,3.2-4.11,3.1-6.87-3.2-7.69-5.18-19.99-8.99-27.04-.92-1.7-2.98-3.37-4.87-3.77l-93.58-.26Z"/>
    <path class="st0" d="M500.51,388.25c2.62-.53,6.27,1.62,6.4,4.48.09,1.9-3.92,10.66-5.56,10.82-1.16.11-8.1-3.46-8.32-4.66,1.13-2.84,4.29-10,7.48-10.64Z"/>
    <path class="st0" d="M482.79,393.35c-1.84,1.09-6.93-2.56-8.59-3.57,1.25-4.07,5.97-13.79,11.25-9.22,1.96,1.7,1.41,4.05.68,6.3-.26.8-3.03,6.31-3.34,6.49Z"/>
    <path class="st0" d="M181.31,72.09c18.75-3.18,22.73,26.23,5.1,27.67-15.97,1.31-20.16-25.12-5.1-27.67Z"/>
    <path class="st0" d="M115.07,424.27c24.73-4.18,17.62,32.91-3.5,25.35-12.72-4.56-8.57-23.31,3.5-25.35Z"/>
    <path class="st0" d="M407.83,75.89c5.66,2.28,12.36,6.26,8.43,13.22-3.95,6.99-11.71,2.17-15.83-2.02,1.22-1.74,5.76-10.9,7.39-11.2Z"/>
    <path d="M337.49,221.14l93.58.26c1.89.4,3.95,2.07,4.87,3.77,3.81,7.05,5.79,19.34,8.99,27.04.1,2.77-.84,5.22-3.1,6.87l-74.08,54.09,28.04,86.96c.74,3.93-.68,5.69-3.4,8.17-3.98,3.62-16.55,12.82-21.2,15.27-2.25,1.18-3.74,1.48-6.3.73l-76.66-54.85-74.86,54.22c-2.7,1.82-4.93.59-7.41-.77-3.99-2.2-19.51-13.4-22.36-16.51-1.14-1.24-1.84-2.85-1.72-4.56l28.3-87.76-76.74-56.18c-3.35-4.03.82-13.6,2.28-18.37,1.26-4.11,4.21-15.29,7.64-17.31.95-.56,2.18-.91,3.29-1.03l93.38-.22,29.23-87.85c1.33-2.85,4.57-3.82,7.45-4.07,6.35-.54,19.7-.65,25.94.02,4.14.44,5.06,2.55,6.49,5.99l28.36,86.09ZM423.79,237.07l-90.93-.03c-3.62-.31-6.45-1.65-7.8-5.16l-28.65-87.47-15.54-.4-29.35,89.9c-1.53,1.88-3.46,3.09-5.98,3.14l-92.44.2c-.53.35-3.62,11.05-3.75,12.14-.08.71.05,1.13.61,1.59l73.4,53.79c1.79,1.76,3.35,4.73,3.17,7.29l-27.58,86.7,10.83,8.88.96.03,73.28-52.99c3.55-1.91,5.45-1.95,8.95,0l73.78,52.95c.61.38,1.07-.02,1.58-.32,3.26-1.9,6.58-5.85,9.96-7.84l.34-.88-27.04-85.24c-2.68-7.62,5.24-11.2,10.39-15.08,21.39-16.13,43.54-31.27,65.02-47.28.56-.46.69-.87.61-1.58-.37-3.37-3.45-8.62-3.81-12.31Z"/>
    <path class="st0" d="M423.79,237.07c.36,3.69,3.44,8.94,3.81,12.31.08.71-.05,1.12-.61,1.58-21.48,16.01-43.64,31.15-65.02,47.28-5.14,3.88-13.07,7.46-10.39,15.08l27.04,85.24-.34.88c-3.38,1.99-6.7,5.94-9.96,7.84-.51.3-.98.7-1.58.32l-73.78-52.95c-3.5-1.95-5.4-1.91-8.95,0l-73.28,52.99-.96-.03-10.83-8.88,27.58-86.7c.18-2.55-1.37-5.53-3.17-7.29l-73.4-53.79c-.56-.46-.69-.87-.61-1.59.12-1.09,3.22-11.79,3.75-12.14l92.44-.2c2.52-.05,4.45-1.26,5.98-3.14l29.35-89.9,15.54.4,28.65,87.47c1.34,3.51,4.18,4.85,7.8,5.16l90.93.03ZM279.84,290.28c-2.48-23.05-25.82-38.53-47.99-37.9-.26,1.37.37.77,1.05,1.09,5.69,2.62,11.56,4.84,17.03,7.95,12.61,7.16,21.45,17.33,29.91,28.87ZM344.64,252.38c-22.2-.63-45.5,14.84-47.99,37.9,8.47-11.57,17.3-21.68,29.91-28.87,5.57-3.18,11.27-5.3,17.03-7.95.68-.31,1.31.28,1.05-1.09ZM253.44,273.97c-.23,6.52-3.85,19.28,2.16,23.99s15.15.35,15.12-7.44c-.02-6.23-12.46-13.59-17.28-16.55ZM322.32,273.98c-6.32,5.22-20.54,10.79-15.46,21.2,3.11,6.39,12.97,6.35,15.79.23,2.21-4.8,1.26-14.91.39-20.25-.09-.57-.27-.85-.72-1.19ZM324.96,342.58c-6.81-38.88-65.41-38.78-74.4-1.2l8.49-7.34c18.96-13.92,45.19-12.74,62.09,3.97,1.35,1.33,2.34,3.34,3.82,4.58Z"/>
    <path d="M324.96,342.58c-1.47-1.24-2.47-3.24-3.82-4.58-16.9-16.71-43.13-17.89-62.09-3.97l-8.49,7.34c8.99-37.58,67.59-37.68,74.4,1.2Z"/>
    <path d="M322.32,273.98c.46.33.63.62.72,1.19.87,5.33,1.82,15.45-.39,20.25-2.82,6.12-12.68,6.16-15.79-.23-5.08-10.41,9.14-15.98,15.46-21.2Z"/>
    <path d="M253.44,273.97c4.82,2.96,17.26,10.32,17.28,16.55.03,7.79-8.85,12.36-15.12,7.44s-2.39-17.47-2.16-23.99Z"/>
    <path d="M279.84,290.28c-8.47-11.54-17.31-21.71-29.91-28.87-5.48-3.11-11.34-5.33-17.03-7.95-.68-.31-1.31.28-1.05-1.09,22.18-.62,45.51,14.86,47.99,37.9Z"/>
    <path d="M344.64,252.38c.26,1.37-.37.77-1.05,1.09-5.76,2.65-11.46,4.77-17.03,7.95-12.61,7.2-21.44,17.3-29.91,28.87,2.49-23.06,25.79-38.53,47.99-37.9Z"/>
  </g>
  <path d="M461.97,288.09"/>
</svg>